<svg width="512" height="128" viewBox="0 0 512 128" fill="none" xmlns="http://www.w3.org/2000/svg">
<path fill-rule="evenodd" clip-rule="evenodd" d="M5 41.8552C5 19.8438 22.8438 2 44.8552 2H89.1448C111.156 2 129 19.8438 129 41.8552V86.1448C129 108.156 111.156 126 89.1448 126H44.8552C22.8438 126 5 108.156 5 86.1448V41.8552ZM54.0365 53.3941V30.6651H42.9248V74.1853V76.9638H43.0775C44.4596 89.464 55.0575 99.1866 67.9261 99.1866C81.7339 99.1866 92.9274 87.9931 92.9274 74.1853H81.8157C81.8157 81.8563 75.5971 88.0749 67.9261 88.0749C60.2551 88.0749 54.0365 81.8563 54.0365 74.1853C54.0365 66.5143 60.2551 60.2957 67.9261 60.2957V49.184C62.7866 49.184 58.0092 50.7348 54.0365 53.3941Z" fill="#131E33"/>
<path fill-rule="evenodd" clip-rule="evenodd" d="M80.118 49.1846L85.5195 59.3703L80.118 69.556H72.5559L77.9574 59.3703L72.5559 49.1846H80.118Z" fill="#16AFF0"/>
<path fill-rule="evenodd" clip-rule="evenodd" d="M93.0814 49.1846L98.4829 59.3703L93.0814 69.556H85.5193L90.9208 59.3703L85.5193 49.1846H93.0814Z" fill="#16AFF0"/>
<path d="M182.389 90.1184C177.079 90.1184 173.173 88.1015 170.671 84.0678H170.518V88.9696H160.484V34.2072H170.901V54.4271H171.13C173.632 50.5465 177.283 48.6062 182.083 48.6062C187.036 48.6062 191.095 50.5465 194.261 54.4271C197.427 58.2567 199.01 63.2351 199.01 69.3623C199.01 75.6938 197.478 80.7488 194.414 84.5273C191.35 88.2547 187.342 90.1184 182.389 90.1184ZM180.092 81.3871C182.747 81.3871 184.789 80.3403 186.219 78.2469C187.7 76.1534 188.44 73.1919 188.44 69.3623C188.44 65.5838 187.674 62.5968 186.142 60.4012C184.662 58.1545 182.517 57.0312 179.709 57.0312C173.684 57.0312 170.671 61.2182 170.671 69.5921C170.671 73.2174 171.513 76.1023 173.198 78.2469C174.883 80.3403 177.181 81.3871 180.092 81.3871Z" fill="#131E33"/>
<path d="M202.487 88.9696V34.2072H212.904V88.9696H202.487Z" fill="#131E33"/>
<path d="M251.623 84.2209C247.794 88.1526 242.866 90.1184 236.841 90.1184C230.816 90.1184 225.889 88.1526 222.059 84.2209C218.23 80.2382 216.315 75.2853 216.315 69.3623C216.315 63.4393 218.23 58.512 222.059 54.5803C225.889 50.5976 230.816 48.6062 236.841 48.6062C242.866 48.6062 247.794 50.5976 251.623 54.5803C255.453 58.512 257.368 63.4393 257.368 69.3623C257.368 75.2853 255.453 80.2382 251.623 84.2209ZM236.841 82.153C239.956 82.153 242.381 81.0041 244.117 78.7064C245.904 76.3576 246.798 73.2429 246.798 69.3623C246.798 65.4817 245.904 62.367 244.117 60.0182C242.381 57.6695 239.956 56.4951 236.841 56.4951C233.675 56.4951 231.225 57.6695 229.488 60.0182C227.752 62.316 226.884 65.4307 226.884 69.3623C226.884 73.2429 227.752 76.3576 229.488 78.7064C231.225 81.0041 233.675 82.153 236.841 82.153Z" fill="#131E33"/>
<path d="M278.906 90.1184C272.83 90.1184 267.954 88.1526 264.277 84.2209C260.601 80.2893 258.763 75.3364 258.763 69.3623C258.763 63.3882 260.55 58.4354 264.124 54.5037C267.75 50.5721 272.498 48.6062 278.37 48.6062C283.323 48.6062 287.357 49.9083 290.471 52.5124C293.586 55.1164 295.501 58.6141 296.216 63.0053H286.029C285.672 61.2182 284.855 59.7629 283.578 58.6396C282.302 57.5163 280.719 56.9546 278.83 56.9546C275.766 56.9546 273.417 58.0524 271.783 60.248C270.149 62.4436 269.332 65.4817 269.332 69.3623C269.332 73.1919 270.124 76.23 271.707 78.4766C273.29 80.6722 275.613 81.77 278.677 81.77C283.221 81.77 285.851 79.5489 286.565 75.1066H296.599C296.241 79.4468 294.48 83.0465 291.314 85.9059C288.148 88.7143 284.012 90.1184 278.906 90.1184Z" fill="#131E33"/>
<path d="M325.498 88.9696L314.469 71.0473L309.95 75.7194V88.9696H299.61V34.2072H309.95V64.5371L323.89 49.6785H336.374L321.898 64.6137L338.135 88.9696H325.498Z" fill="#131E33"/>
<path d="M357.187 90.1184C350.855 90.1184 345.877 88.1781 342.252 84.2975C338.626 80.3659 336.814 75.3619 336.814 69.2857C336.814 63.4138 338.626 58.512 342.252 54.5803C345.877 50.5976 350.523 48.6062 356.191 48.6062C362.369 48.6062 367.144 50.7508 370.514 55.0398C373.884 59.3289 375.569 65.0732 375.569 72.2728H347.077C347.485 75.3875 348.532 77.8128 350.217 79.5489C351.902 81.2339 354.2 82.0764 357.11 82.0764C360.94 82.0764 363.467 80.468 364.693 77.2512H374.956C374.19 80.9275 372.25 83.9912 369.135 86.4421C366.02 88.893 362.038 90.1184 357.187 90.1184ZM356.344 56.6483C351.289 56.6483 348.251 59.4566 347.23 65.0732H364.693C364.54 62.5713 363.697 60.5544 362.165 59.0226C360.633 57.4397 358.693 56.6483 356.344 56.6483Z" fill="#131E33"/>
<path d="M395.095 90.1184C390.142 90.1184 386.134 88.2547 383.07 84.5273C380.007 80.7488 378.475 75.6938 378.475 69.3623C378.475 63.2351 380.032 58.2567 383.147 54.4271C386.313 50.5465 390.346 48.6062 395.248 48.6062C400.15 48.6062 403.852 50.5465 406.354 54.4271H406.584V34.2072H417V88.9696H406.967V83.838H406.814C404.26 88.0249 400.354 90.1184 395.095 90.1184ZM397.393 81.3871C400.456 81.3871 402.78 80.3403 404.363 78.2469C405.997 76.1534 406.814 73.2685 406.814 69.5921C406.814 61.2182 403.775 57.0312 397.699 57.0312C394.891 57.0312 392.746 58.1545 391.266 60.4012C389.785 62.6479 389.044 65.6349 389.044 69.3623C389.044 73.1919 389.759 76.1534 391.189 78.2469C392.67 80.3403 394.738 81.3871 397.393 81.3871Z" fill="#131E33"/>
<path d="M441.081 102.373C435.77 102.373 431.507 101.301 428.29 99.1561C425.124 97.0116 423.261 93.999 422.699 90.1184H433.039C434.06 93.0289 436.689 94.4841 440.927 94.4841C446.748 94.4841 449.659 91.7524 449.659 86.2889V81.9998H449.429C446.723 85.0634 443.302 86.5952 439.166 86.5952C434.519 86.5952 430.46 84.8847 426.988 81.4637C423.567 78.0426 421.856 73.4982 421.856 67.8305C421.856 62.0096 423.439 57.3631 426.605 53.891C429.771 50.3678 433.856 48.6062 438.86 48.6062C443.608 48.6062 447.233 50.3423 449.735 53.8144H449.889V49.6785H459.922V85.9825C459.922 91.0886 458.365 95.0713 455.25 97.9307C452.084 100.892 447.361 102.373 441.081 102.373ZM440.927 78.2469C444.042 78.2469 446.365 77.2512 447.897 75.2598C449.429 73.2685 450.195 70.7154 450.195 67.6007C450.195 64.5371 449.378 62.0096 447.744 60.0182C446.161 57.9758 443.863 56.9546 440.851 56.9546C438.196 56.9546 436.051 57.9248 434.417 59.8651C432.834 61.8054 432.043 64.4095 432.043 67.6773C432.043 70.9963 432.834 73.6003 434.417 75.4896C436.051 77.3278 438.221 78.2469 440.927 78.2469Z" fill="#131E33"/>
<path d="M485.087 90.1184C478.756 90.1184 473.778 88.1781 470.152 84.2975C466.527 80.3659 464.714 75.3619 464.714 69.2857C464.714 63.4138 466.527 58.512 470.152 54.5803C473.778 50.5976 478.424 48.6062 484.092 48.6062C490.27 48.6062 495.044 50.7508 498.414 55.0398C501.784 59.3289 503.469 65.0732 503.469 72.2728H474.977C475.386 75.3875 476.433 77.8128 478.118 79.5489C479.803 81.2339 482.1 82.0764 485.011 82.0764C488.84 82.0764 491.368 80.468 492.593 77.2512H502.857C502.091 80.9275 500.15 83.9912 497.036 86.4421C493.921 88.893 489.938 90.1184 485.087 90.1184ZM484.245 56.6483C479.19 56.6483 476.152 59.4566 475.131 65.0732H492.593C492.44 62.5713 491.598 60.5544 490.066 59.0226C488.534 57.4397 486.594 56.6483 484.245 56.6483Z" fill="#131E33"/>
</svg>
